<?xml version="1.0" encoding="utf-8"?>
<!-- Generator: Adobe Illustrator 24.1.0, SVG Export Plug-In . SVG Version: 6.00 Build 0)  -->
<svg version="1.1" id="Layer_1" xmlns="http://www.w3.org/2000/svg" xmlns:xlink="http://www.w3.org/1999/xlink" x="0px" y="0px"
	 viewBox="0 0 300 140" style="enable-background:new 0 0 300 140;" xml:space="preserve">
<style type="text/css">
	.st0{fill:#FE4A49;}
</style>
<g id="Arrow" transform="translate(-2473.073 -452.158)">
	<path class="st0" d="M2546.5,456.2c1.7,0,3.3,0.6,4.6,1.9c2.6,2.6,2.7,6.7,0.1,9.4l-53.2,54.7l53.2,54.7c2.5,2.6,2.5,6.8-0.1,9.4
		c-2.6,2.5-6.8,2.5-9.4-0.1l-62.2-64l62.2-64C2543,456.9,2544.7,456.2,2546.5,456.2z"/>
	<path class="st0" d="M2488.8,515.5h271.7c3.7,0,6.6,3,6.6,6.6c0,3.7-3,6.6-6.6,6.6h-271.7c-3.7,0-6.6-3-6.6-6.6
		C2482.2,518.5,2485.1,515.5,2488.8,515.5z"/>
</g>
</svg>
