<?xml version="1.0" encoding="utf-8"?>
<!-- Generator: Adobe Illustrator 24.0.0, SVG Export Plug-In . SVG Version: 6.00 Build 0)  -->
<svg version="1.1" id="Layer_1" xmlns="http://www.w3.org/2000/svg" xmlns:xlink="http://www.w3.org/1999/xlink" x="0px" y="0px"
	 viewBox="0 0 100 100" style="enable-background:new 0 0 100 100;" xml:space="preserve">
<style type="text/css">
	.st0{fill:#FFFFFF;}
</style>
<g>
	<path id="Path_14" class="st0" d="M40.1,13.3c14.7,0,26.6,11.9,26.6,26.6c0,14.7-11.9,26.6-26.6,26.6c-14.7,0-26.6-11.9-26.6-26.6
		C13.5,25.2,25.4,13.3,40.1,13.3 M40.1,2.1C19.3,2.1,2.3,19,2.3,39.9c0,20.9,16.9,37.8,37.8,37.8c20.9,0,37.8-16.9,37.8-37.8
		c0,0,0,0,0,0C77.9,19,61,2.1,40.1,2.1z"/>
	
		<rect id="Rectangle_3" x="75.8" y="62.8" transform="matrix(0.7071 -0.7071 0.7071 0.7071 -33.5526 81.3508)" class="st0" width="11.2" height="36.7"/>
</g>
</svg>
