<?xml version="1.0" encoding="utf-8"?>
<!-- Generator: Adobe Illustrator 24.0.0, SVG Export Plug-In . SVG Version: 6.00 Build 0)  -->
<svg version="1.1" id="Layer_1" xmlns="http://www.w3.org/2000/svg" xmlns:xlink="http://www.w3.org/1999/xlink" x="0px" y="0px"
	 viewBox="0 0 100 100" style="enable-background:new 0 0 100 100;" xml:space="preserve">
<style type="text/css">
	.st0{fill:#EEEEEE;}
	.st1{fill:#AAAAAA;}
</style>
<g>
	<g id="Group_2">
		<circle id="Ellipse_1" class="st0" cx="50" cy="50" r="50"/>
		<path id="Path_11" class="st1" d="M50,3.5c25.7,0,46.5,20.8,46.5,46.5c0,25.7-20.8,46.5-46.5,46.5C24.3,96.5,3.5,75.7,3.5,50
			C3.5,24.3,24.3,3.5,50,3.5 M50,0C22.4,0,0,22.4,0,50c0,0,0,0,0,0c0,27.6,22.4,50,50,50c27.6,0,50-22.4,50-50S77.6,0,50,0L50,0z"/>
	</g>
	<path id="Path_12" class="st1" d="M56.5,53.9c7.4-2.7,12.3-9.8,12.3-17.7c0-10.4-8.5-18.9-18.9-18.9c0,0,0,0,0,0
		c-10.4,0-18.9,8.5-18.9,18.9l0,0c0,7.9,4.9,15,12.3,17.7C29.1,57,18.9,69.6,18.9,84.3c0,1.7,0.1,3.5,0.4,5.2
		C28.1,96.3,38.9,100,50,100c11.1,0,21.9-3.7,30.7-10.5c0.3-1.7,0.4-3.4,0.4-5.2C81.1,69.6,70.9,57,56.5,53.9z"/>
</g>
</svg>
