<?xml version="1.0" encoding="utf-8"?>
<!-- Generator: Adobe Illustrator 24.0.0, SVG Export Plug-In . SVG Version: 6.00 Build 0)  -->
<svg version="1.1" id="Layer_1" xmlns="http://www.w3.org/2000/svg" xmlns:xlink="http://www.w3.org/1999/xlink" x="0px" y="0px"
	 viewBox="0 0 1290 300" style="enable-background:new 0 0 1290 300;" xml:space="preserve">
<style type="text/css">
	.st0{fill:#FFFFFF;}
</style>
<g>
	<circle class="st0" cx="46.5" cy="232.4" r="15.2"/>
	<g>
		<path class="st0" d="M98.7,65.7c-28.9,0-52.5,23.5-52.5,52.5c0,3.1,2.5,5.7,5.7,5.7c3.1,0,5.7-2.5,5.7-5.7
			C57.6,95.5,76.1,77,98.8,77S140,95.5,140,118.2s-18.5,41.2-41.2,41.2c-9.1,0-17.7-2.9-24.8-8.3C73.9,151,85,140,85,140
			c4,2.5,8.7,4,13.8,4c14.2,0,25.7-11.5,25.7-25.7S113,92.6,98.8,92.6C84.6,92.5,73,104,73,118.2c0,5.1,1.5,9.8,4,13.8l-15.4,15.4
			c-1.1,1.1-1.7,2.5-1.7,4s0.6,2.9,1.7,4c9.9,9.9,23.1,15.4,37.1,15.4c28.9,0,52.5-23.5,52.5-52.5S127.7,65.7,98.7,65.7z
			 M98.7,103.8c8,0,14.4,6.5,14.4,14.4s-6.5,14.4-14.4,14.4c-8,0-14.4-6.5-14.4-14.4S90.8,103.8,98.7,103.8z"/>
		<path class="st0" d="M98.7,31.1c-48,0-86.9,38.9-86.9,86.9c0,18.9,6.1,36.4,16.3,50.7v20.5c0,11.9,9.7,21.6,21.6,21.6
			c8.2,0,15.3-4.6,18.9-11.3c0.9,0.3,1.7,0.6,2.6,0.9v46.8c0,11.9,9.7,21.6,21.6,21.6s21.6-9.7,21.6-21.6v-43.8h0.1
			c1,11,10.2,19.6,21.5,19.6c11.9,0,21.6-9.7,21.6-21.6v-19.6c17.2-15.9,28-38.6,28-63.9C185.6,70,146.7,31.1,98.7,31.1z
			 M98.7,187.2c-38.1,0-69-30.9-69-69s30.9-69,69-69s69,30.9,69,69S136.9,187.2,98.7,187.2z"/>
	</g>
</g>
<g>
	<path class="st0" d="M253.3,182c4.1,0,7.5-0.3,10.2-1s4.8-1.6,6.5-2.8c1.6-1.2,2.7-2.6,3.4-4.2c0.6-1.6,0.9-3.4,0.9-5.4
		c0-4.2-2-7.8-6-10.6s-10.9-5.8-20.6-9.1c-4.2-1.5-8.5-3.2-12.7-5.2c-4.2-1.9-8.1-4.4-11.4-7.3c-3.4-2.9-6.1-6.5-8.2-10.7
		c-2.1-4.2-3.2-9.3-3.2-15.3s1.1-11.4,3.4-16.2c2.2-4.8,5.4-8.9,9.6-12.3c4.1-3.4,9.1-6,15-7.8s12.5-2.7,19.9-2.7
		c8.7,0,16.3,0.9,22.7,2.8s11.6,3.9,15.7,6.2l-8.4,23.1c-3.6-1.9-7.7-3.5-12.1-5c-4.4-1.4-9.8-2.2-16-2.2c-7,0-12,1-15.1,2.9
		s-4.6,4.9-4.6,8.9c0,2.4,0.6,4.4,1.7,6c1.1,1.6,2.7,3.1,4.8,4.4s4.4,2.5,7.1,3.6s5.7,2.2,8.9,3.3c6.7,2.5,12.6,5,17.6,7.4
		c5,2.4,9.2,5.3,12.5,8.5c3.3,3.3,5.8,7.1,7.4,11.4c1.6,4.4,2.4,9.7,2.4,15.9c0,12.1-4.2,21.5-12.7,28.2s-21.3,10-38.4,10
		c-5.7,0-10.9-0.3-15.6-1c-4.6-0.7-8.7-1.5-12.3-2.5s-6.6-2.1-9.2-3.2c-2.6-1.1-4.7-2.2-6.5-3.2l8.2-23.2c3.9,2.1,8.7,4,14.3,5.7
		C238.1,181.1,245.1,182,253.3,182z"/>
	<path class="st0" d="M450.7,139.2c0,11.1-1.7,20.9-5,29.3c-3.3,8.4-7.8,15.5-13.6,21.2c-5.7,5.7-12.6,10-20.5,12.8
		c-7.9,2.9-16.5,4.3-25.6,4.3c-8.9,0-17.2-1.4-25.1-4.3c-7.9-2.9-14.7-7.2-20.6-12.8c-5.9-5.7-10.5-12.7-13.9-21.2
		c-3.4-8.4-5.1-18.2-5.1-29.3s1.7-20.9,5.2-29.3s8.2-15.5,14.2-21.3c5.9-5.7,12.8-10.1,20.6-12.9c7.8-2.9,16-4.3,24.7-4.3
		c8.9,0,17.2,1.4,25.1,4.3s14.7,7.2,20.6,12.9c5.9,5.7,10.5,12.8,13.9,21.3C449,118.3,450.7,128.1,450.7,139.2z M351.6,139.2
		c0,6.4,0.8,12.1,2.3,17.2c1.6,5.1,3.8,9.5,6.7,13.2c2.9,3.7,6.5,6.5,10.8,8.5c4.2,2,9.1,3,14.6,3c5.4,0,10.2-1,14.5-3
		s7.9-4.8,10.9-8.5c2.9-3.7,5.2-8.1,6.7-13.2c1.6-5.1,2.3-10.9,2.3-17.2c0-6.4-0.8-12.2-2.3-17.3c-1.6-5.2-3.8-9.6-6.7-13.3
		c-2.9-3.7-6.6-6.5-10.9-8.5s-9.2-3-14.5-3c-5.5,0-10.4,1-14.6,3.1s-7.8,4.9-10.8,8.6c-2.9,3.7-5.2,8.1-6.7,13.3
		C352.3,127.3,351.6,133,351.6,139.2z"/>
	<path class="st0" d="M475.1,204.3V74.4h87V99h-57.7v27.2h51.4v24.6h-51.4v53.6L475.1,204.3L475.1,204.3z"/>
	<path class="st0" d="M683,74.4v24.9h-39.2v105h-29.2v-105h-39.2V74.4H683z"/>
	<path class="st0" d="M737.1,182c4.1,0,7.5-0.3,10.2-1s4.8-1.6,6.5-2.8c1.6-1.2,2.7-2.6,3.4-4.2c0.6-1.6,0.9-3.4,0.9-5.4
		c0-4.2-2-7.8-6-10.6s-10.9-5.8-20.6-9.1c-4.2-1.5-8.5-3.2-12.7-5.2c-4.2-1.9-8.1-4.4-11.4-7.3c-3.4-2.9-6.1-6.5-8.2-10.7
		c-2.1-4.2-3.2-9.3-3.2-15.3s1.1-11.4,3.4-16.2c2.2-4.8,5.4-8.9,9.6-12.3c4.1-3.4,9.1-6,15-7.8s12.5-2.7,19.9-2.7
		c8.7,0,16.3,0.9,22.7,2.8s11.6,3.9,15.7,6.2l-8.4,23.1c-3.6-1.9-7.7-3.5-12.1-5c-4.4-1.4-9.8-2.2-16-2.2c-7,0-12,1-15.1,2.9
		s-4.6,4.9-4.6,8.9c0,2.4,0.6,4.4,1.7,6c1.1,1.6,2.7,3.1,4.8,4.4s4.4,2.5,7.1,3.6c2.7,1.1,5.7,2.2,8.9,3.3c6.7,2.5,12.6,5,17.6,7.4
		c5,2.4,9.2,5.3,12.5,8.5c3.3,3.3,5.8,7.1,7.4,11.4c1.6,4.4,2.4,9.7,2.4,15.9c0,12.1-4.2,21.5-12.7,28.2s-21.3,10-38.4,10
		c-5.7,0-10.9-0.3-15.6-1c-4.6-0.7-8.7-1.5-12.3-2.5s-6.6-2.1-9.2-3.2c-2.6-1.1-4.7-2.2-6.5-3.2l8.2-23.2c3.9,2.1,8.7,4,14.3,5.7
		C721.9,181.1,728.9,182,737.1,182z"/>
	<path class="st0" d="M810.8,204.3V74.4h87.7V99H840v25.5h52v24h-51.9v31.3h62.8v24.6h-92.1V204.3z"/>
	<path class="st0" d="M962.5,72.9c19.5,0,34.4,3.5,44.8,10.4c10.4,6.9,15.6,17.7,15.6,32.3c0,9.1-2.1,16.5-6.3,22.2
		s-10.2,10.2-18.1,13.4c2.6,3.2,5.4,7,8.2,11.2c2.9,4.2,5.7,8.6,8.5,13.1c2.8,4.6,5.5,9.3,8.2,14.2c2.6,4.9,5.1,9.8,7.3,14.5h-32.8
		c-2.4-4.2-4.8-8.6-7.2-12.9c-2.4-4.4-4.9-8.6-7.5-12.7c-2.6-4.1-5.1-8-7.6-11.7s-5-7-7.5-10h-14.4v47.4h-29.2v-128
		c6.4-1.2,13-2.1,19.8-2.6C951,73.1,957.1,72.9,962.5,72.9z M964.1,97.8c-2.1,0-4,0.1-5.7,0.2s-3.3,0.3-4.8,0.4v35.2h8.2
		c11,0,18.9-1.4,23.6-4.1c4.7-2.7,7.1-7.4,7.1-14.1c0-6.4-2.4-10.9-7.2-13.6C980.6,99.1,973.5,97.8,964.1,97.8z"/>
	<path class="st0" d="M1085.2,204.3c-5.1-10.9-10.2-22.2-15.2-33.9c-5-11.7-9.7-23.4-14.2-34.9s-8.7-22.5-12.5-33
		s-7.1-19.9-9.8-28.1h32.2c2.5,7.5,5.2,15.6,8.2,24.3c2.9,8.7,5.9,17.3,9,26c3.1,8.6,6,16.9,8.9,24.7c2.9,7.9,5.6,14.7,8.1,20.4
		c2.4-5.7,5-12.6,8-20.4c2.9-7.9,5.9-16.1,9-24.7s6.1-17.3,9-26s5.7-16.8,8.2-24.3h31.1c-2.9,8.2-6.2,17.6-9.9,28.1
		s-7.9,21.5-12.4,33s-9.2,23.1-14.2,34.9c-5,11.7-10.1,23.1-15.2,33.9L1085.2,204.3L1085.2,204.3z"/>
	<path class="st0" d="M1182,204.3V74.4h87.7V99h-58.5v25.5h51.9v24h-51.9v31.3h62.8v24.6h-92V204.3z"/>
</g>
</svg>
