<?xml version="1.0" encoding="utf-8"?>
<!-- Generator: Adobe Illustrator 24.0.0, SVG Export Plug-In . SVG Version: 6.00 Build 0)  -->
<svg version="1.1" id="Layer_1" xmlns="http://www.w3.org/2000/svg" xmlns:xlink="http://www.w3.org/1999/xlink" x="0px" y="0px"
	 viewBox="0 0 1301.7 193.9" style="enable-background:new 0 0 1301.7 193.9;" xml:space="preserve">
<style type="text/css">
	.st0{fill:#FFFFFF;}
</style>
<g>
	<path class="st0" d="M279.3,139.8c4.1,0,7.5-0.3,10.2-1s4.8-1.6,6.5-2.8c1.6-1.2,2.7-2.6,3.4-4.2c0.6-1.6,0.9-3.4,0.9-5.4
		c0-4.2-2-7.8-6-10.6s-10.9-5.8-20.6-9.1c-4.2-1.5-8.5-3.2-12.7-5.2c-4.2-1.9-8.1-4.4-11.4-7.3c-3.4-2.9-6.1-6.5-8.2-10.7
		c-2.1-4.2-3.2-9.3-3.2-15.3s1.1-11.4,3.4-16.2c2.2-4.8,5.4-8.9,9.6-12.3c4.1-3.4,9.1-6,15-7.8c5.9-1.8,12.5-2.7,19.9-2.7
		c8.7,0,16.3,0.9,22.7,2.8c6.4,1.9,11.6,3.9,15.7,6.2l-8.4,23.1c-3.6-1.9-7.7-3.5-12.1-5c-4.4-1.4-9.8-2.2-16-2.2
		c-7,0-12,1-15.1,2.9s-4.6,4.9-4.6,8.9c0,2.4,0.6,4.4,1.7,6c1.1,1.6,2.7,3.1,4.8,4.4s4.4,2.5,7.1,3.6s5.7,2.2,8.9,3.3
		c6.7,2.5,12.6,5,17.6,7.4c5,2.4,9.2,5.3,12.5,8.5c3.3,3.3,5.8,7.1,7.4,11.4c1.6,4.4,2.4,9.7,2.4,15.9c0,12.1-4.2,21.5-12.7,28.2
		s-21.3,10-38.4,10c-5.7,0-10.9-0.3-15.6-1c-4.6-0.7-8.7-1.5-12.3-2.5s-6.6-2.1-9.2-3.2c-2.6-1.1-4.7-2.2-6.5-3.2l8.2-23.2
		c3.9,2.1,8.7,4,14.3,5.7C264.1,138.9,271.1,139.8,279.3,139.8z"/>
	<path class="st0" d="M476.7,97c0,11.1-1.7,20.9-5,29.3c-3.3,8.4-7.8,15.5-13.6,21.2c-5.7,5.7-12.6,10-20.5,12.8
		c-7.9,2.9-16.5,4.3-25.6,4.3c-8.9,0-17.2-1.4-25.1-4.3c-7.9-2.9-14.7-7.2-20.6-12.8c-5.9-5.7-10.5-12.7-13.9-21.2
		c-3.4-8.4-5.1-18.2-5.1-29.3s1.7-20.9,5.2-29.3s8.2-15.5,14.2-21.3c5.9-5.7,12.8-10.1,20.6-12.9c7.8-2.9,16-4.3,24.7-4.3
		c8.9,0,17.2,1.4,25.1,4.3s14.7,7.2,20.6,12.9c5.9,5.7,10.5,12.8,13.9,21.3C475,76.1,476.7,85.9,476.7,97z M377.6,97
		c0,6.4,0.8,12.1,2.3,17.2c1.6,5.1,3.8,9.5,6.7,13.2c2.9,3.7,6.5,6.5,10.8,8.5c4.2,2,9.1,3,14.6,3c5.4,0,10.2-1,14.5-3
		s7.9-4.8,10.9-8.5c2.9-3.7,5.2-8.1,6.7-13.2c1.6-5.1,2.3-10.9,2.3-17.2c0-6.4-0.8-12.2-2.3-17.3c-1.6-5.2-3.8-9.6-6.7-13.3
		c-2.9-3.7-6.6-6.5-10.9-8.5s-9.2-3-14.5-3c-5.5,0-10.4,1-14.6,3.1s-7.8,4.9-10.8,8.6c-2.9,3.7-5.2,8.1-6.7,13.3
		C378.3,85.1,377.6,90.8,377.6,97z"/>
	<path class="st0" d="M501.1,162.1V32.2h87v24.6h-57.7V84h51.4v24.6h-51.4v53.6L501.1,162.1L501.1,162.1z"/>
	<path class="st0" d="M709,32.2v24.9h-39.2v105h-29.2v-105h-39.2V32.2H709z"/>
	<path class="st0" d="M763.1,139.8c4.1,0,7.5-0.3,10.2-1s4.8-1.6,6.5-2.8c1.6-1.2,2.7-2.6,3.4-4.2c0.6-1.6,0.9-3.4,0.9-5.4
		c0-4.2-2-7.8-6-10.6s-10.9-5.8-20.6-9.1c-4.2-1.5-8.5-3.2-12.7-5.2c-4.2-1.9-8.1-4.4-11.4-7.3c-3.4-2.9-6.1-6.5-8.2-10.7
		c-2.1-4.2-3.2-9.3-3.2-15.3s1.1-11.4,3.4-16.2c2.2-4.8,5.4-8.9,9.6-12.3c4.1-3.4,9.1-6,15-7.8c5.9-1.8,12.5-2.7,19.9-2.7
		c8.7,0,16.3,0.9,22.7,2.8c6.4,1.9,11.6,3.9,15.7,6.2l-8.4,23.1c-3.6-1.9-7.7-3.5-12.1-5c-4.4-1.4-9.8-2.2-16-2.2
		c-7,0-12,1-15.1,2.9s-4.6,4.9-4.6,8.9c0,2.4,0.6,4.4,1.7,6c1.1,1.6,2.7,3.1,4.8,4.4s4.4,2.5,7.1,3.6c2.7,1.1,5.7,2.2,8.9,3.3
		c6.7,2.5,12.6,5,17.6,7.4c5,2.4,9.2,5.3,12.5,8.5c3.3,3.3,5.8,7.1,7.4,11.4c1.6,4.4,2.4,9.7,2.4,15.9c0,12.1-4.2,21.5-12.7,28.2
		s-21.3,10-38.4,10c-5.7,0-10.9-0.3-15.6-1c-4.6-0.7-8.7-1.5-12.3-2.5s-6.6-2.1-9.2-3.2c-2.6-1.1-4.7-2.2-6.5-3.2l8.2-23.2
		c3.9,2.1,8.7,4,14.3,5.7C747.9,138.9,754.9,139.8,763.1,139.8z"/>
	<path class="st0" d="M836.8,162.1V32.2h87.7v24.6H866v25.5h52v24h-51.9v31.3h62.8v24.6h-92.1V162.1z"/>
	<path class="st0" d="M988.5,30.7c19.5,0,34.4,3.5,44.8,10.4c10.4,6.9,15.6,17.7,15.6,32.3c0,9.1-2.1,16.5-6.3,22.2
		s-10.2,10.2-18.1,13.4c2.6,3.2,5.4,7,8.2,11.2c2.9,4.2,5.7,8.6,8.5,13.1c2.8,4.6,5.5,9.3,8.2,14.2c2.6,4.9,5.1,9.8,7.3,14.5h-32.8
		c-2.4-4.2-4.8-8.6-7.2-12.9c-2.4-4.4-4.9-8.6-7.5-12.7c-2.6-4.1-5.1-8-7.6-11.7s-5-7-7.5-10h-14.4v47.4h-29.2v-128
		c6.4-1.2,13-2.1,19.8-2.6C977,30.9,983.1,30.7,988.5,30.7z M990.1,55.6c-2.1,0-4,0.1-5.7,0.2s-3.3,0.3-4.8,0.4v35.2h8.2
		c11,0,18.9-1.4,23.6-4.1c4.7-2.7,7.1-7.4,7.1-14.1c0-6.4-2.4-10.9-7.2-13.6C1006.6,56.9,999.5,55.6,990.1,55.6z"/>
	<path class="st0" d="M1111.2,162.1c-5.1-10.9-10.2-22.2-15.2-33.9c-5-11.7-9.7-23.4-14.2-34.9s-8.7-22.5-12.5-33
		s-7.1-19.9-9.8-28.1h32.2c2.5,7.5,5.2,15.6,8.2,24.3c2.9,8.7,5.9,17.3,9,26c3.1,8.6,6,16.9,8.9,24.7c2.9,7.9,5.6,14.7,8.1,20.4
		c2.4-5.7,5-12.6,8-20.4c2.9-7.9,5.9-16.1,9-24.7s6.1-17.3,9-26s5.7-16.8,8.2-24.3h31.1c-2.9,8.2-6.2,17.6-9.9,28.1
		s-7.9,21.5-12.4,33s-9.2,23.1-14.2,34.9c-5,11.7-10.1,23.1-15.2,33.9L1111.2,162.1L1111.2,162.1z"/>
	<path class="st0" d="M1208,162.1V32.2h87.7v24.6h-58.5v25.5h51.9v24h-51.9v31.3h62.8v24.6h-92V162.1z"/>
</g>
<g>
	<path class="st0" d="M100.8,4.1C49.5,4.1,8,45.7,8,96.9s41.5,92.8,92.8,92.8s92.8-41.5,92.8-92.8S152,4.1,100.8,4.1z M100.8,174.1
		c-20.6,0-40-8-54.6-22.6c-1.6-1.6-2.4-3.7-2.4-5.9s0.9-4.3,2.4-5.9l22.6-22.6c-3.7-5.9-5.9-12.8-5.9-20.2c0-20.9,17-37.9,37.9-37.9
		s37.9,17,37.9,37.9s-17,37.9-37.9,37.9c-7.4,0-14.4-2.2-20.2-5.9l-16.3,16.3c10.5,8,23.2,12.3,36.5,12.3
		c33.4,0,60.6-27.2,60.6-60.6s-27.2-60.6-60.6-60.6S40.2,63.5,40.2,96.9c0,4.6-3.7,8.3-8.3,8.3s-8.3-3.7-8.3-8.3
		c0-42.6,34.6-77.2,77.2-77.2S178,54.3,178,96.9S143.4,174.1,100.8,174.1z"/>
	<path class="st0" d="M100.8,118.1c11.7,0,21.2-9.5,21.2-21.2s-9.5-21.2-21.2-21.2s-21.2,9.5-21.2,21.2
		C79.6,108.6,89.1,118.1,100.8,118.1z"/>
</g>
</svg>
